# ProBuilder 4.4.0
# https://unity3d.com/unity/features/worldbuilding/probuilder
# 2020-12-10 4:29:22 PM

mtllib ./Map.mtl
o Map

g C1(Clone)
v 112.0963 -2 -0.1228256
v 132.0963 -2 -0.1228256
v 112.0963 0 -0.1228256
v 132.0963 0 -0.1228256
v 132.0963 -2 -102.6943
v 132.0963 0 -102.6943
v 112.0963 -2 -102.6943
v 112.0963 0 -102.6943
v 0 -2 -41.99736
v 0 -2 0
v 0 0 -41.99736
v 0 0 0
v 112.0962 -2 -41.99736
v 112.0962 -2 0
v 112.0962 0 -41.99736
v 112.0962 0 0
v 111.5962 -2 -41.99736
v 111.5962 -2 0
v 111.5962 0 -41.99736
v 111.5962 0 0
v 96.95021 0 -41.99746
v 96.95021 -2 -41.99746
v 57.89152 0 -41.99746
v 57.89152 -2 -41.99746
v 0 -2 -62.83943
v 0 0 -62.83943
v 57.89152 -2 -62.83953
v 57.89152 0 -62.83953
v 112.0963 -2 -205.2657
v 132.0963 -2 -205.2657
v 112.0963 0 -205.2657
v 132.0963 0 -205.2657
v 0 -2 -163.3912
v 0 -2 -205.3885
v 0 0 -163.3912
v 0 0 -205.3885
v 112.0962 -2 -163.3912
v 112.0962 -2 -205.3885
v 112.0962 0 -163.3912
v 112.0962 0 -205.3885
v 111.5962 -2 -163.3912
v 111.5962 -2 -205.3885
v 111.5962 0 -163.3912
v 111.5962 0 -205.3885
v 96.95021 0 -163.3911
v 96.95021 -2 -163.3911
v 57.89152 0 -163.3911
v 57.89152 -2 -163.3911
v 0 -2 -142.5491
v 0 0 -142.5491
v 57.89152 -2 -142.549
v 57.89152 0 -142.549
v -112.0963 -2 -0.1228256
v -132.0963 -2 -0.1228256
v -112.0963 0 -0.1228256
v -132.0963 0 -0.1228256
v -132.0963 -2 -102.6943
v -132.0963 0 -102.6943
v -112.0963 -2 -102.6943
v -112.0963 0 -102.6943
v -112.0962 -2 -41.99736
v -112.0962 -2 0
v -112.0962 0 -41.99736
v -112.0962 0 0
v -111.5962 -2 -41.99736
v -111.5962 -2 0
v -111.5962 0 -41.99736
v -111.5962 0 0
v -96.95021 0 -41.99746
v -96.95021 -2 -41.99746
v -57.89152 0 -41.99746
v -57.89152 -2 -41.99746
v -57.89152 -2 -62.83953
v -57.89152 0 -62.83953
v -112.0963 -2 -205.2657
v -132.0963 -2 -205.2657
v -112.0963 0 -205.2657
v -132.0963 0 -205.2657
v -112.0962 -2 -163.3912
v -112.0962 -2 -205.3885
v -112.0962 0 -163.3912
v -112.0962 0 -205.3885
v -111.5962 -2 -163.3912
v -111.5962 -2 -205.3885
v -111.5962 0 -163.3912
v -111.5962 0 -205.3885
v -96.95021 0 -163.3911
v -96.95021 -2 -163.3911
v -57.89152 0 -163.3911
v -57.89152 -2 -163.3911
v -57.89152 -2 -142.549
v -57.89152 0 -142.549

vt 112.0963 -2
vt 132.0963 -2
vt 112.0963 0
vt 132.0963 0
vt 0.1228256 -2
vt 102.6943 -2
vt 0.1228256 0
vt 102.6943 0
vt -132.0963 -2
vt -112.0963 -2
vt -132.0963 0
vt -112.0963 0
vt -41.99736 -2
vt 0 -2
vt -41.99736 0
vt 0 0
vt -112.0963 -0.1228256
vt -132.0963 -0.1228256
vt -112.0963 -102.6943
vt -132.0963 -102.6943
vt 112.0963 -102.6943
vt 132.0963 -102.6943
vt 112.0963 -0.1228256
vt 132.0963 -0.1228256
vt 112.0962 -41.99736
vt -102.6944 0
vt -102.6944 -2
vt -41.99754 0
vt -41.99754 -2
vt 0.2133438 -2
vt 0.2133438 0
vt 0.09051808 -2
vt 0.09051808 0
vt -112.0962 -41.99736
vt 111.5962 -41.99736
vt 111.5962 0
vt -111.5962 0
vt -111.5962 -2
vt 111.5962 -2
vt -111.5962 -41.99736
vt 0 -41.99736
vt -96.95021 0
vt -96.95021 -2
vt -57.89152 0
vt -57.89152 -2
vt -111.5959 0
vt -111.5959 -2
vt -96.94993 0
vt -96.94993 -2
vt -57.89152 -41.99746
vt -96.95021 -41.99746
vt 96.95021 -41.99746
vt 57.89152 -41.99746
vt -62.83943 -2
vt -62.83943 0
vt 57.89152 -62.83953
vt 0 -62.83943
vt -57.89152 -62.83953
vt 41.99746 0
vt 41.99746 -2
vt 62.83953 0
vt 62.83953 -2
vt 205.2657 -2
vt 205.2657 0
vt -163.3912 -2
vt -205.3885 -2
vt -163.3912 0
vt -205.3885 0
vt -112.0963 -205.2657
vt -132.0963 -205.2657
vt 112.0963 -205.2657
vt 132.0963 -205.2657
vt 112.0962 -163.3912
vt 112.0962 -205.3885
vt -163.391 0
vt -163.391 -2
vt 205.1751 -2
vt 205.1751 0
vt 205.2979 -2
vt 205.2979 0
vt -112.0962 -205.3885
vt -112.0962 -163.3912
vt 111.5962 -163.3912
vt 111.5962 -205.3885
vt -111.5962 -205.3885
vt -111.5962 -163.3912
vt 0 -163.3912
vt 0 -205.3885
vt 96.95021 0
vt 96.95021 -2
vt 57.89152 0
vt 57.89152 -2
vt 111.5976 0
vt 111.5976 -2
vt 96.9516 0
vt 96.9516 -2
vt -57.89152 -163.3911
vt -96.95021 -163.3911
vt 96.95021 -163.3911
vt 57.89152 -163.3911
vt 57.8912 -2
vt 57.8912 0
vt -142.5491 -2
vt -142.5491 0
vt 57.89152 -142.549
vt 1.907349E-06 -142.5491
vt -57.89152 -142.549
vt 163.3911 0
vt 163.3911 -2
vt 142.549 0
vt 142.549 -2
vt -0.1228256 -2
vt -0.1228256 0
vt 41.99754 0
vt 41.99754 -2
vt -0.2133438 -2
vt -0.2133438 0
vt -0.09051808 -2
vt -0.09051808 0
vt 111.5959 0
vt 111.5959 -2
vt 96.94993 0
vt 96.94993 -2
vt 62.83943 -2
vt 62.83943 0
vt -62.83953 0
vt -62.83953 -2
vt -205.2657 -2
vt -205.2657 0
vt 205.3885 -2
vt 205.3885 0
vt 163.391 0
vt 163.391 -2
vt -205.1751 -2
vt -205.1751 0
vt -205.2979 -2
vt -205.2979 0
vt -111.5976 0
vt -111.5976 -2
vt -96.95154 0
vt -96.95154 -2
vt -57.89123 -2
vt -57.89123 0
vt 142.5491 -2
vt 142.5491 0
vt -142.549 0
vt -142.549 -2

vn 0 0 1
vn 1 0 0
vn 0 0 -1
vn -1 0 0
vn 0 1 0
vn 0 -1 0
vn 0.9999997 0 0.0008075034
vn 0.9999997 0 -0.0008074532
vn -0.9999997 0 0.0008075034
vn -0.9999997 0 -0.0008074532

usemtl New_Material_3
f 1/1/1 2/2/1 4/4/1 3/3/1
f 2/5/2 5/6/2 6/8/2 4/7/2
f 5/9/3 7/10/3 8/12/3 6/11/3
f 9/13/4 10/14/4 12/16/4 11/15/4
f 3/17/5 4/18/5 6/20/5 8/19/5
f 7/21/6 5/22/6 2/24/6 1/23/6
f 7/21/6 1/23/6 14/3/6 13/25/6
f 8/26/4 7/27/4 13/29/4 15/28/4
f 1/30/7 3/31/7 16/33/7 14/32/7
f 3/17/5 8/19/5 15/34/5 16/12/5
f 13/25/6 14/3/6 18/36/6 17/35/6
f 15/12/3 13/10/3 17/38/3 19/37/3
f 14/1/1 16/3/1 20/36/1 18/39/1
f 16/12/5 15/34/5 19/40/5 20/37/5
f 17/35/6 18/36/6 10/16/6 9/41/6
f 21/42/3 22/43/3 24/45/3 23/44/3
f 18/39/1 20/36/1 12/16/1 10/14/1
f 20/37/5 19/40/5 11/41/5 12/16/5
f 19/46/3 17/47/3 22/49/3 21/48/3
f 11/41/5 19/40/5 21/51/5 23/50/5
f 17/35/6 9/41/6 24/53/6 22/52/6
f 25/14/3 26/16/3 28/44/3 27/45/3
f 9/13/4 11/15/4 26/55/4 25/54/4
f 24/53/6 9/41/6 25/57/6 27/56/6
f 11/41/5 23/50/5 28/58/5 26/57/5
f 23/59/2 24/60/2 27/62/2 28/61/2
f 31/12/3 32/11/3 30/9/3 29/10/3
f 32/64/2 6/8/2 5/6/2 30/63/2
f 6/4/1 8/3/1 7/1/1 5/2/1
f 35/67/4 36/68/4 34/66/4 33/65/4
f 8/19/5 6/20/5 32/70/5 31/69/5
f 29/71/6 30/72/6 5/22/6 7/21/6
f 37/73/6 38/74/6 29/71/6 7/21/6
f 39/75/4 37/76/4 7/27/4 8/26/4
f 38/79/8 40/80/8 31/78/8 29/77/8
f 40/81/5 39/82/5 8/19/5 31/69/5
f 41/83/6 42/84/6 38/74/6 37/73/6
f 43/36/1 41/39/1 37/1/1 39/3/1
f 42/38/3 44/37/3 40/12/3 38/10/3
f 44/85/5 43/86/5 39/82/5 40/81/5
f 33/87/6 34/88/6 42/84/6 41/83/6
f 47/91/1 48/92/1 46/90/1 45/89/1
f 34/14/3 36/16/3 44/37/3 42/38/3
f 36/88/5 35/87/5 43/86/5 44/85/5
f 45/95/1 46/96/1 41/94/1 43/93/1
f 47/97/5 45/98/5 43/86/5 35/87/5
f 46/99/6 48/100/6 33/87/6 41/83/6
f 51/101/1 52/102/1 50/16/1 49/14/1
f 49/103/4 50/104/4 35/67/4 33/65/4
f 51/105/6 49/106/6 33/87/6 48/100/6
f 50/106/5 52/107/5 47/97/5 35/87/5
f 52/110/2 51/111/2 48/109/2 47/108/2
f 55/12/1 56/11/1 54/9/1 53/10/1
f 56/113/4 58/26/4 57/27/4 54/112/4
f 58/4/3 60/3/3 59/1/3 57/2/3
f 11/59/2 12/16/2 10/14/2 9/60/2
f 60/21/5 58/22/5 56/24/5 55/23/5
f 53/17/6 54/18/6 57/20/6 59/19/6
f 61/34/6 62/12/6 53/17/6 59/19/6
f 63/114/2 61/115/2 59/6/2 60/8/2
f 62/118/9 64/119/9 55/117/9 53/116/9
f 64/3/5 63/25/5 60/21/5 55/23/5
f 65/40/6 66/37/6 62/12/6 61/34/6
f 67/36/3 65/39/3 61/1/3 63/3/3
f 66/38/1 68/37/1 64/12/1 62/10/1
f 68/36/5 67/35/5 63/25/5 64/3/5
f 9/41/6 10/16/6 66/37/6 65/40/6
f 71/91/3 72/92/3 70/90/3 69/89/3
f 10/14/1 12/16/1 68/37/1 66/38/1
f 12/16/5 11/41/5 67/35/5 68/36/5
f 69/122/3 70/123/3 65/121/3 67/120/3
f 71/53/5 69/52/5 67/35/5 11/41/5
f 70/51/6 72/50/6 9/41/6 65/40/6
f 73/92/3 74/91/3 26/16/3 25/14/3
f 25/124/2 26/125/2 11/59/2 9/60/2
f 73/58/6 25/57/6 9/41/6 72/50/6
f 26/57/5 74/56/5 71/53/5 11/41/5
f 74/126/4 73/127/4 72/13/4 71/15/4
f 75/1/3 76/2/3 78/4/3 77/3/3
f 76/128/4 57/27/4 58/26/4 78/129/4
f 57/9/1 59/10/1 60/12/1 58/11/1
f 33/109/2 34/130/2 36/131/2 35/108/2
f 77/71/5 78/72/5 58/22/5 60/21/5
f 59/19/6 57/20/6 76/70/6 75/69/6
f 59/19/6 75/69/6 80/81/6 79/82/6
f 60/8/2 59/6/2 79/133/2 81/132/2
f 75/134/10 77/135/10 82/137/10 80/136/10
f 77/71/5 60/21/5 81/73/5 82/74/5
f 79/82/6 80/81/6 84/85/6 83/86/6
f 81/12/1 79/10/1 83/38/1 85/37/1
f 80/1/3 82/3/3 86/36/3 84/39/3
f 82/74/5 81/73/5 85/83/5 86/84/5
f 83/86/6 84/85/6 34/88/6 33/87/6
f 87/42/1 88/43/1 90/45/1 89/44/1
f 84/39/3 86/36/3 36/16/3 34/14/3
f 86/84/5 85/83/5 35/87/5 36/88/5
f 85/138/1 83/139/1 88/141/1 87/140/1
f 35/87/5 85/83/5 87/99/5 89/100/5
f 83/86/6 33/87/6 90/97/6 88/98/6
f 49/14/1 50/16/1 92/143/1 91/142/1
f 33/109/2 35/108/2 50/145/2 49/144/2
f 90/97/6 33/87/6 49/106/6 91/107/6
f 35/87/5 89/100/5 92/105/5 50/106/5
f 89/67/4 90/65/4 91/147/4 92/146/4

